Coordinates
version=1
nRows=18
nColumns=63
inDegrees=yes

Units are S.I. units (second, meters, Newtons, ...)
If the header above contains a line with 'inDegrees', this indicates whether rotational values are in degrees (yes) or radians (no).

endheader
time	pelvis_tilt	pelvis_list	pelvis_rotation	pelvis_tx	pelvis_ty	pelvis_tz	hip_flexion_r	hip_adduction_r	hip_rotation_r	knee_angle_r	knee_angle_r_beta	ankle_angle_r	subtalar_angle_r	mtp_angle_r	hip_flexion_l	hip_adduction_l	hip_rotation_l	knee_angle_l	knee_angle_l_beta	ankle_angle_l	subtalar_angle_l	mtp_angle_l	L5_S1_Flex_Ext	L5_S1_Lat_Bending	L5_S1_axial_rotation	L4_L5_Flex_Ext	L4_L5_Lat_Bending	L4_L5_axial_rotation	L3_L4_Flex_Ext	L3_L4_Lat_Bending	L3_L4_axial_rotation	L2_L3_Flex_Ext	L2_L3_Lat_Bending	L2_L3_axial_rotation	L1_L2_Flex_Ext	L1_L2_Lat_Bending	L1_L2_axial_rotation	L1_T12_Flex_Ext	L1_T12_Lat_Bending	L1_T12_axial_rotation	Abs_r3	Abs_r2	Abs_r1	Abs_t1	Abs_t2	neck_flexion	neck_bending	neck_rotation	arm_flex_r	arm_add_r	arm_rot_r	elbow_flex_r	pro_sup_r	wrist_flex_r	wrist_dev_r	arm_flex_l	arm_add_l	arm_rot_l	elbow_flex_l	pro_sup_l	wrist_flex_l	wrist_dev_l
0.000000	1.020798	-4.058174	93.003744	0.178001	0.486641	1.019159	9.473485	0.413609	-9.830440	16.260017	0.283791	38.077254	12.348592	0.000000	8.724947	-0.792300	12.198968	14.220602	0.248196	31.584833	-12.217410	0.000000	-0.472231	0.173806	0.115924	-0.876980	0.231162	0.123169	-0.775828	0.422591	0.123169	-0.539713	0.422591	0.101433	-0.438513	0.354425	0.094188	-0.269833	0.269225	0.086943	-3.373097	1.966125	0.644734	0.000000	0.000000	10.480420	-3.356215	3.138397	10.648933	-17.277189	37.406733	22.971798	79.284179	-12.444596	-6.094207	17.022063	-11.245095	148.105939	1.520337	3.610356	-5.911486	-14.241305
0.016949	0.936880	-3.946417	92.984180	0.177674	0.486845	1.019251	9.295788	0.270283	-10.205359	16.286170	0.284247	38.027466	12.512427	0.000000	8.545081	-0.581097	12.882825	14.257065	0.248833	30.887527	-12.819567	0.000000	-0.483268	0.172149	0.062269	-0.897477	0.228958	0.066161	-0.793961	0.418563	0.066161	-0.552327	0.418563	0.054485	-0.448762	0.351047	0.050593	-0.276139	0.266659	0.046702	-3.451933	1.947386	0.346321	0.000000	0.000000	10.377638	-3.362746	3.600316	10.752605	-17.300750	39.472694	22.664145	80.368235	-13.393169	-6.101792	16.873695	-11.173961	149.780279	1.447451	3.612039	-6.584424	-12.754326
0.033898	0.842840	-3.870812	92.972525	0.177463	0.486984	1.019332	9.164753	0.126246	-10.525203	16.289919	0.284313	38.019775	12.697333	0.000000	8.417333	-0.381108	13.425934	14.264180	0.248957	30.335000	-13.328143	0.000000	-0.491364	0.165771	0.023784	-0.912512	0.220476	0.025271	-0.807262	0.403057	0.025271	-0.561580	0.403057	0.020811	-0.456281	0.338041	0.019325	-0.280765	0.256780	0.017838	-3.509765	1.875240	0.132282	0.000000	0.000000	10.323271	-3.348058	3.895342	10.771729	-17.281767	41.047317	22.418976	81.249388	-14.114759	-6.109546	16.759435	-11.115318	151.330626	1.396497	3.885103	-7.243917	-11.419085
0.050847	0.740900	-3.826904	92.968274	0.177351	0.487064	1.019406	9.076950	-0.016376	-10.788208	16.276055	0.284071	38.049297	12.891486	0.000000	8.336698	-0.192542	13.840358	14.246201	0.248643	29.916593	-13.748609	0.000000	-0.496920	0.155443	-0.001463	-0.922830	0.206739	-0.001555	-0.816389	0.377944	-0.001555	-0.567930	0.377944	-0.001280	-0.461440	0.316980	-0.001189	-0.283940	0.240781	-0.001098	-3.549448	1.758404	-0.008139	0.000000	0.000000	10.311269	-3.314822	4.046440	10.719460	-17.226117	42.193234	22.227778	81.938578	-14.632501	-6.119166	16.675376	-11.067306	152.758523	1.365231	4.386694	-7.888847	-10.232095
0.067797	0.633283	-3.810237	92.970921	0.177323	0.487096	1.019476	9.028944	-0.155452	-10.992611	16.249371	0.283605	38.111149	13.083063	0.000000	8.298169	-0.015610	14.138164	14.207379	0.247966	29.621648	-14.086439	0.000000	-0.500334	0.141935	-0.015409	-0.929171	0.188773	-0.016372	-0.822000	0.345100	-0.016372	-0.571832	0.345100	-0.013483	-0.464611	0.289434	-0.012520	-0.285891	0.219857	-0.011557	-3.573839	1.605596	-0.085699	0.000000	0.000000	10.335582	-3.265712	4.076577	10.608951	-17.139672	42.973078	22.082037	82.446748	-14.969529	-6.132352	16.617611	-11.028063	154.065514	1.351407	5.073959	-8.518095	-9.189864
0.084746	0.522211	-3.816357	92.979959	0.177364	0.487086	1.019545	9.017304	-0.288856	-11.136649	16.214657	0.282999	38.200448	13.260241	0.000000	8.296738	0.149480	14.331417	14.151970	0.246998	29.439508	-14.347107	0.000000	-0.502008	0.126017	-0.019986	-0.932280	0.167603	-0.021235	-0.824750	0.306398	-0.021235	-0.573745	0.306398	-0.017488	-0.466165	0.256974	-0.016238	-0.286848	0.195201	-0.014989	-3.585796	1.425532	-0.111155	0.000000	0.000000	10.390159	-3.203399	4.008718	10.453357	-17.028308	43.449481	21.973240	82.784837	-15.148980	-6.150803	16.582234	-10.995729	155.253143	1.352782	5.904043	-9.130542	-8.288905
0.101695	0.409908	-3.840809	92.994883	0.177458	0.487042	1.019617	9.038596	-0.414458	-11.218560	16.176706	0.282337	38.312310	13.411197	0.000000	8.327400	0.302517	14.432180	14.084226	0.245816	29.359516	-14.536087	0.000000	-0.502342	0.108461	-0.017128	-0.932899	0.144253	-0.018199	-0.825297	0.263712	-0.018199	-0.574126	0.263712	-0.014987	-0.466474	0.221173	-0.013917	-0.287038	0.168006	-0.012846	-3.588176	1.226930	-0.095263	0.000000	0.000000	10.468950	-3.130557	3.865829	10.265831	-16.897897	43.685075	21.892872	82.963788	-15.193987	-6.176216	16.565338	-10.968442	156.322954	1.367111	6.834092	-9.725071	-7.525727
0.118644	0.298595	-3.879138	93.015187	0.177590	0.486974	1.019694	9.089390	-0.530130	-11.236579	16.140309	0.281702	38.441853	13.524107	0.000000	8.385147	0.443291	14.452520	14.008400	0.244493	29.371012	-14.658850	0.000000	-0.501734	0.090036	-0.008771	-0.931770	0.119748	-0.009319	-0.824298	0.218914	-0.009319	-0.573432	0.218914	-0.007674	-0.465910	0.183602	-0.007126	-0.286691	0.139466	-0.006578	-3.583834	1.018507	-0.048781	0.000000	0.000000	10.565905	-3.049857	3.670877	10.059528	-16.754315	43.742494	21.832421	82.994540	-15.127686	-6.210292	16.563015	-10.944344	157.276490	1.392150	7.821253	-10.300561	-6.896842
0.135593	0.190495	-3.926890	93.040365	0.177744	0.486888	1.019779	9.166251	-0.633743	-11.188944	16.110258	0.281177	38.584192	13.587148	0.000000	8.464972	0.571593	14.404501	13.928747	0.243102	29.463340	-14.720871	0.000000	-0.500585	0.071514	0.003153	-0.929636	0.095113	0.003350	-0.822411	0.173879	0.003350	-0.572119	0.173879	0.002759	-0.464843	0.145831	0.002562	-0.286034	0.110775	0.002365	-3.575629	0.808979	0.017535	0.000000	0.000000	10.674973	-2.963973	3.446826	9.847600	-16.603436	43.684369	21.783371	82.888035	-14.973213	-6.254728	16.571360	-10.921571	158.115295	1.425654	8.822671	-10.855895	-6.398760
0.152542	0.087831	-3.979609	93.069910	0.177905	0.486793	1.019877	9.265748	-0.723169	-11.073893	16.091344	0.280847	38.734444	13.588496	0.000000	8.561869	0.687213	14.300189	13.849519	0.241720	29.625841	-14.727622	0.000000	-0.499295	0.053665	0.016709	-0.927241	0.071374	0.017753	-0.820292	0.130480	0.017753	-0.570645	0.130480	0.014620	-0.463646	0.109433	0.013576	-0.285297	0.083126	0.012531	-3.566417	0.607064	0.092929	0.000000	0.000000	10.790105	-2.875576	3.216644	9.643203	-16.451133	43.573334	21.737209	82.655214	-14.753702	-6.311224	16.586466	-10.898265	158.840913	1.465379	9.795493	-11.389954	-6.027991
0.169492	-0.007175	-4.032841	93.103318	0.178057	0.486697	1.019989	9.384448	-0.796280	-10.889661	16.088360	0.280795	38.887727	13.516329	0.000000	8.670832	0.789941	14.151649	13.774970	0.240419	29.847858	-14.684578	0.000000	-0.498265	0.037259	0.029962	-0.925327	0.049554	0.031835	-0.818599	0.090591	0.031835	-0.569467	0.090591	0.026217	-0.462688	0.075978	0.024344	-0.284708	0.057714	0.022472	-3.559054	0.421479	0.166642	0.000000	0.000000	10.905249	-2.787340	3.003296	9.459490	-16.303280	43.472020	21.685422	82.307018	-14.492288	-6.381479	16.604425	-10.872563	159.454887	1.509080	10.696865	-11.901619	-5.781047
0.186441	-0.066821	-4.051763	93.145654	0.178093	0.486696	1.020146	9.489743	-0.823001	-10.599234	16.099957	0.280997	39.024177	13.293078	0.000000	8.760495	0.857213	13.947997	13.714950	0.239371	30.132875	-14.559225	0.000000	-0.500692	0.029927	0.026215	-0.929835	0.039803	0.027853	-0.822587	0.072764	0.027853	-0.572241	0.072764	0.022938	-0.464943	0.061027	0.021300	-0.286095	0.046357	0.019661	-3.576393	0.338540	0.145799	0.000000	0.000000	10.971518	-2.714122	3.017232	9.431135	-16.216147	43.851421	21.549374	82.427468	-14.452879	-6.483416	16.590049	-10.832531	159.921741	1.551071	11.263677	-12.436474	-5.746143
0.203390	-0.084054	-4.054296	93.195834	0.178003	0.486676	1.020407	9.606943	-0.795147	-10.194412	16.144190	0.281769	39.127123	12.903438	0.000000	8.867987	0.886299	13.742879	13.705055	0.239198	30.486378	-14.358685	0.000000	-0.506306	0.030752	0.015079	-0.940261	0.040900	0.016021	-0.831810	0.074770	0.016021	-0.578657	0.074770	0.013194	-0.470156	0.062709	0.012251	-0.289303	0.047635	0.011309	-3.616495	0.347870	0.083863	0.000000	0.000000	11.041560	-2.677414	3.113944	9.261732	-16.442195	39.982975	22.298044	85.522064	-14.660871	-6.268451	16.578990	-10.758733	160.192644	1.586210	11.682130	-12.878636	-5.807830
0.220339	-0.113020	-4.042400	93.244942	0.177919	0.486680	1.020650	9.731774	-0.771136	-9.740325	16.233671	0.283331	39.239311	12.435562	0.000000	8.954336	0.934027	13.620297	13.694226	0.239009	30.815995	-14.242917	0.000000	-0.513013	0.030623	0.004766	-0.952716	0.040728	0.005064	-0.842829	0.074456	0.005064	-0.586322	0.074456	0.004170	-0.476384	0.062446	0.003872	-0.293136	0.047435	0.003574	-3.664400	0.346411	0.026507	0.000000	0.000000	11.083211	-2.642631	3.208958	9.205348	-16.497645	38.740352	22.515471	86.207145	-14.615715	-6.253664	16.582158	-10.687085	160.538199	1.608134	11.925284	-13.267036	-5.929479
0.237288	-0.157567	-4.022941	93.289513	0.177821	0.486699	1.020903	9.874381	-0.761458	-9.257132	16.369055	0.285694	39.365093	11.915143	0.000000	9.038206	0.993592	13.473587	13.703812	0.239177	31.155731	-14.050980	0.000000	-0.520494	0.029337	-0.005995	-0.966609	0.039018	-0.006370	-0.855119	0.071329	-0.006370	-0.594872	0.071329	-0.005246	-0.483331	0.059823	-0.004871	-0.297410	0.045442	-0.004496	-3.717836	0.331861	-0.033343	0.000000	0.000000	11.098496	-2.620670	3.314528	9.266284	-16.416232	39.803521	22.274358	84.811180	-14.347540	-6.447630	16.588011	-10.619425	160.819915	1.627340	11.931134	-13.594067	-6.119312
0.254237	-0.203763	-3.999508	93.323805	0.177732	0.486730	1.021144	10.042294	-0.746530	-8.719601	16.557200	0.288978	39.489719	11.315511	0.000000	9.114864	1.053004	13.328817	13.722947	0.239511	31.481043	-13.867198	0.000000	-0.527720	0.028337	-0.018450	-0.980029	0.037689	-0.019603	-0.866991	0.068899	-0.019603	-0.603131	0.068899	-0.016144	-0.490041	0.057786	-0.014991	-0.301539	0.043895	-0.013838	-3.769450	0.320558	-0.102614	0.000000	0.000000	11.073442	-2.611763	3.455609	9.457028	-16.218544	42.879543	21.619710	81.785407	-13.942704	-6.832235	16.581061	-10.558561	160.999305	1.649036	11.761524	-13.930349	-6.374926
0.271186	-0.246280	-3.977656	93.356203	0.177633	0.486765	1.021376	10.236128	-0.714339	-8.094127	16.788261	0.293010	39.592210	10.565576	0.000000	9.195265	1.107304	13.176918	13.762988	0.240209	31.798092	-13.667190	0.000000	-0.534598	0.028331	-0.034165	-0.992801	0.037680	-0.036301	-0.878291	0.068884	-0.036301	-0.610992	0.068884	-0.029895	-0.496427	0.057772	-0.027759	-0.305469	0.043884	-0.025624	-3.818578	0.320484	-0.190018	0.000000	0.000000	11.020978	-2.603914	3.652167	9.766024	-15.931513	47.741733	20.611004	77.417146	-13.466652	-7.354049	16.556131	-10.505711	161.056653	1.677319	11.398007	-14.298380	-6.721110
0.288136	-0.287494	-3.961744	93.384911	0.177514	0.486794	1.021579	10.457746	-0.674983	-7.416927	17.063921	0.297822	39.669153	9.723489	0.000000	9.277075	1.160879	13.028741	13.817985	0.241169	32.085340	-13.474957	0.000000	-0.540382	0.029169	-0.054825	-1.003543	0.038795	-0.058252	-0.887793	0.070921	-0.058252	-0.617602	0.070921	-0.047972	-0.501799	0.059481	-0.044545	-0.308774	0.045183	-0.041119	-3.859894	0.329965	-0.304921	0.000000	0.000000	10.950641	-2.573500	3.935533	10.191770	-15.572927	54.158372	19.296353	71.892247	-12.927283	-8.011059	16.503673	-10.461725	160.989037	1.715069	10.833383	-14.707881	-7.134707
